<?xml version="1.0" encoding="utf-8"?>
<!-- Generator: Adobe Illustrator 18.1.1, SVG Export Plug-In . SVG Version: 6.00 Build 0)  -->
<!DOCTYPE svg PUBLIC "-//W3C//DTD SVG 1.1//EN" "http://www.w3.org/Graphics/SVG/1.1/DTD/svg11.dtd">
<svg version="1.1" id="レイヤー_1" xmlns="http://www.w3.org/2000/svg" xmlns:xlink="http://www.w3.org/1999/xlink" x="0px"
	 y="0px" viewBox="0 0 283.5 283.5" enable-background="new 0 0 283.5 283.5" xml:space="preserve">
<rect x="0" y="0" fill="#FFFFFF" width="283.5" height="283.5"/>
<g>
	<path fill="#040000" d="M22,216.8h8.6v-3.5h1.8v3.5H41v2H22V216.8z M40.2,240.7c0,0.9-0.2,1.5-0.6,1.9c-0.4,0.4-0.9,0.6-1.6,0.6
		c-0.4,0-0.9,0-1.4,0c-0.5,0-0.9-0.1-1.4-0.1l-0.2-2.5c1,0.2,1.9,0.4,2.7,0.4c0.5,0,0.7-0.4,0.7-1.1V231h-14v12.6h-1.7v-14.5h17.5
		V240.7z M37.5,220.8v6.3H25.5v-6.3H37.5z M26.9,241.3v-8.3H36v6.4h-7.5v1.9H26.9z M27.3,222.7v2.6h8.5v-2.6H27.3z M34.4,234.7h-5.9
		v2.9h5.9V234.7z"/>
	<path fill="#040000" d="M58.3,216.6v-3.3H60v3.3h9.3v2H60v2.2h7.1v10.5h-2.6v2.2h5.2v2.1h-5.1v5.6c0,1.6-0.6,2.4-1.9,2.4
		c-0.5,0-1.1,0-1.6-0.1c-0.5,0-1-0.1-1.5-0.2l-0.3-2.4c0.9,0.3,1.9,0.4,2.8,0.4c0.5,0,0.7-0.4,0.7-1.1v-4.7h-14v-2.1h14v-2.2H51.3
		v-10.5h7v-2.2h-9.2v-2H58.3z M56.4,242c-0.5-0.9-1.1-1.7-1.6-2.5c-0.6-0.8-1.2-1.6-1.9-2.2l1.3-1.6c0.7,0.7,1.3,1.4,1.9,2.1
		c0.6,0.8,1.2,1.6,1.7,2.4L56.4,242L56.4,242z M58.3,222.6H53v2.4h5.3V222.6z M58.3,226.9H53v2.6h5.3V226.9z M60,222.6v2.4h5.5v-2.4
		H60z M60,226.9v2.6h5.5v-2.6H60z"/>
	<path fill="#040000" d="M94.4,235.4c-0.1,0.8-0.2,1.6-0.3,2.3c-0.2,1-0.5,1.7-0.9,2.3c-0.4,0.5-0.8,1-1.3,1.2
		c-0.5,0.3-1.1,0.4-1.7,0.5c-0.6,0.1-1.2,0.1-1.9,0.1v-2.5c0.8,0,1.4-0.1,1.9-0.2c0.5-0.1,0.8-0.3,1.1-0.5c0.3-0.2,0.5-0.5,0.6-0.8
		c0.1-0.3,0.2-0.7,0.3-1.1c0.1-0.4,0.2-1,0.3-1.7c0.1-0.7,0.1-1.7,0.1-3v-7.8h-6v0.2c0,1.1,0,2.2-0.1,3.1s-0.2,1.8-0.3,2.6
		c-0.1,0.8-0.3,1.6-0.6,2.3c-0.2,0.8-0.5,1.6-0.9,2.5c-0.4,0.9-0.8,1.8-1.3,2.9c-0.5,1.1-1.1,2.3-1.7,3.7l-1.6-1.4
		c0.6-1.3,1.2-2.5,1.7-3.5c0.5-1,0.9-1.9,1.2-2.7c0.3-0.8,0.6-1.6,0.8-2.2c0.2-0.7,0.4-1.4,0.5-2.1s0.2-1.5,0.3-2.3
		c0-0.8,0.1-1.7,0.1-2.8v-0.2H79v-2.4h5.6v-7.2h2v7.2h7.9v10.2C94.5,233.5,94.4,234.5,94.4,235.4z"/>
	<path fill="#040000" d="M114.5,218.7v2.6h-7v-2.6H114.5z M123.7,225.5c-0.7,1.8-1.4,3.4-2,4.9c-0.6,1.5-1.2,2.8-1.9,4
		s-1.3,2.2-2,3.1c-0.7,0.9-1.5,1.6-2.4,2.2c-0.9,0.6-2,1-3.1,1.3c-1.2,0.3-2.5,0.4-4.1,0.4v-2.5c1.3,0,2.4-0.1,3.4-0.3
		c1-0.2,1.9-0.6,2.6-1c0.8-0.5,1.5-1.1,2.1-1.9s1.2-1.7,1.8-2.8c0.6-1.1,1.2-2.3,1.8-3.8c0.6-1.4,1.3-3,2-4.9L123.7,225.5z"/>
	<path fill="#040000" d="M149.4,226.2c-0.4,1.9-1.1,3.7-2,5.3c-0.9,1.7-2,3.3-3.3,5c-1.3,1.6-2.8,3.4-4.6,5.4l-1.3-2
		c1.7-2,3.2-3.7,4.4-5.3c1.2-1.5,2.2-3.1,3-4.5c0.8-1.5,1.4-3,1.7-4.5c0.4-1.6,0.6-3.3,0.6-5.3h-12.8v-2.6h14.9v2
		C150.1,222.2,149.9,224.4,149.4,226.2z"/>
	<path fill="#040000" d="M171.4,229.9c0.9-0.7,1.6-1.2,2.1-1.7c0.5-0.4,1-0.8,1.3-1.2c0.3-0.4,0.5-0.7,0.6-1.1
		c0.1-0.4,0.2-0.8,0.2-1.3v-0.1h-12.3v-2.3h14.1v2.4c0,0.9-0.1,1.6-0.3,2.3c-0.2,0.6-0.5,1.2-0.9,1.7s-0.9,1.1-1.6,1.6
		c-0.6,0.5-1.4,1.1-2.2,1.8L171.4,229.9z M165.2,241.3c0.5-0.8,1-1.5,1.3-2.1c0.4-0.6,0.7-1.2,1-1.8s0.5-1.2,0.6-1.8
		c0.2-0.6,0.3-1.3,0.4-2.1c0.1-0.8,0.2-1.7,0.2-2.8c0-1.1,0-2.3,0-3.9h1.8c0,1.7,0,3.1-0.1,4.3c-0.1,1.2-0.1,2.3-0.2,3.2
		c-0.1,0.9-0.3,1.7-0.5,2.4s-0.5,1.4-0.7,2c-0.3,0.6-0.6,1.3-1,1.9c-0.4,0.7-0.9,1.4-1.4,2.2L165.2,241.3z"/>
	<path fill="#040000" d="M204,233.9c-0.9,1.6-1.8,2.9-2.7,4s-2,1.9-3.1,2.5c-1.1,0.6-2.4,0.9-3.9,0.9h-2v-25.3h2.1v22.8
		c1.2,0,2.2-0.2,3.1-0.7c0.9-0.5,1.7-1.2,2.5-2.1c0.8-0.9,1.6-2.1,2.4-3.5c0.8-1.4,1.8-3.2,2.8-5.1l1.7,1.3
		C205.8,230.6,204.9,232.3,204,233.9z"/>
	<path fill="#040000" d="M225.5,218.7v2.6h-7v-2.6H225.5z M234.7,225.5c-0.7,1.8-1.4,3.4-2,4.9c-0.6,1.5-1.2,2.8-1.9,4
		s-1.3,2.2-2,3.1c-0.7,0.9-1.5,1.6-2.4,2.2c-0.9,0.6-2,1-3.1,1.3c-1.2,0.3-2.5,0.4-4.1,0.4v-2.5c1.3,0,2.4-0.1,3.4-0.3
		c1-0.2,1.9-0.6,2.6-1c0.8-0.5,1.5-1.1,2.1-1.9s1.2-1.7,1.8-2.8c0.6-1.1,1.2-2.3,1.8-3.8c0.6-1.4,1.3-3,2-4.9L234.7,225.5z"/>
	<path fill="#040000" d="M250.1,234.8c1.2-1.3,2.3-2.6,3.2-3.7c0.9-1.1,1.6-2.1,2.1-3.1c0.5-0.9,1-1.8,1.3-2.7
		c0.3-0.9,0.5-1.7,0.6-2.5c0.1-0.8,0.2-1.7,0.2-2.7h-9.7v-2.4h11.7v2.6c0,1-0.1,2-0.2,2.9c-0.1,0.9-0.3,1.8-0.6,2.6
		c-0.3,0.9-0.6,1.7-1.1,2.6c-0.4,0.9-0.9,1.7-1.6,2.6c1.9,2.4,3.3,4.4,4.3,5.9c1,1.5,1.6,2.6,2,3.2l-1.6,1.6c-0.3-0.5-1-1.6-1.9-3.1
		s-2.3-3.4-4.2-5.8c-0.4,0.6-0.9,1.2-1.4,1.8c-0.5,0.6-1.1,1.3-1.7,2c-0.6,0.7-1.3,1.4-2.1,2.2c-0.8,0.8-1.6,1.7-2.5,2.6l-1.2-2.1
		C247.3,237.7,248.8,236.2,250.1,234.8z"/>
</g>
<g>
	<path fill="#040000" d="M78.8,203.9h-1.3v-17.2h1.3V203.9z"/>
	<path fill="#040000" d="M87,191.2c1.1,0,1.9,0.3,2.5,0.9c0.6,0.6,0.8,1.5,0.8,2.7v5.5c0,2.4-1.1,3.6-3.3,3.6h-0.8
		c-2.2,0-3.3-1.2-3.3-3.6v-5.5c0-2.4,1.1-3.6,3.3-3.6H87z M89,194.9c0-0.5,0-0.9-0.1-1.2c-0.1-0.3-0.2-0.5-0.4-0.7
		c-0.2-0.2-0.4-0.2-0.6-0.3s-0.5-0.1-0.8-0.1h-0.9c-0.3,0-0.6,0-0.8,0.1s-0.4,0.1-0.6,0.3c-0.2,0.2-0.3,0.4-0.4,0.7
		c-0.1,0.3-0.1,0.7-0.1,1.2v5.2c0,0.5,0.1,0.9,0.2,1.3c0.1,0.3,0.3,0.5,0.4,0.7c0.2,0.2,0.4,0.3,0.6,0.3c0.2,0,0.5,0.1,0.7,0.1H87
		c0.3,0,0.6,0,0.8-0.1c0.2,0,0.5-0.1,0.6-0.3c0.2-0.1,0.3-0.4,0.4-0.6c0.1-0.3,0.1-0.7,0.1-1.2V194.9z"/>
	<path fill="#040000" d="M98.9,192.6H96v8c0,0.6,0.1,1.1,0.2,1.4c0.1,0.3,0.5,0.5,0.9,0.5h1.6l0,1.5h-1.7c-0.8,0-1.4-0.3-1.8-0.8
		c-0.4-0.5-0.6-1.4-0.6-2.6v-8h-1.4v-1.3h1.4l0.1-3.2H96v3.2h2.8V192.6z"/>
	<path fill="#040000" d="M104.6,192.7c-0.3,0-0.5,0.1-0.7,0.2c-0.2,0.1-0.4,0.3-0.5,0.6s-0.2,0.6-0.2,1.1c0,0.5,0.1,0.8,0.2,1.1
		c0.2,0.3,0.4,0.5,0.7,0.7c0.3,0.1,0.6,0.3,1,0.4c0.2,0,0.4,0.1,0.5,0.1s0.4,0.1,0.6,0.2c0.4,0.1,0.7,0.2,1.1,0.4s0.7,0.3,1,0.6
		c0.3,0.3,0.5,0.6,0.7,1c0.2,0.4,0.3,0.9,0.3,1.6c0,0.7-0.1,1.3-0.3,1.8c-0.2,0.5-0.5,0.8-0.8,1.1c-0.3,0.2-0.7,0.4-1.2,0.5
		s-0.9,0.1-1.3,0.1h-3.4v-1.5h3.4c0.3,0,0.5,0,0.8-0.1s0.5-0.1,0.8-0.3c0.2-0.1,0.4-0.3,0.6-0.6c0.2-0.3,0.2-0.6,0.2-1.1
		c0-0.5-0.1-0.8-0.3-1.1s-0.4-0.5-0.7-0.6c-0.2-0.1-0.3-0.1-0.5-0.2c-0.2-0.1-0.3-0.1-0.5-0.2c-0.2,0-0.4-0.1-0.5-0.1
		c-0.2,0-0.4-0.1-0.5-0.1c-0.4-0.1-0.7-0.2-1.1-0.3c-0.4-0.1-0.7-0.3-1-0.6c-0.3-0.3-0.5-0.6-0.7-1c-0.2-0.4-0.3-1-0.3-1.6
		c0-0.7,0.1-1.2,0.3-1.6c0.2-0.4,0.4-0.8,0.7-1c0.3-0.3,0.6-0.4,1-0.5c0.4-0.1,0.8-0.2,1.2-0.2h3.4v1.4h-3.1
		C105.1,192.7,104.9,192.7,104.6,192.7z"/>
	<path fill="#040000" d="M126.3,191.2c1.1,0,1.9,0.3,2.5,0.9c0.6,0.6,0.8,1.5,0.8,2.7v5.5c0,2.4-1.1,3.6-3.3,3.6h-0.8
		c-2.2,0-3.3-1.2-3.3-3.6v-5.5c0-2.4,1.1-3.6,3.3-3.6H126.3z M128.3,194.9c0-0.5,0-0.9-0.1-1.2c-0.1-0.3-0.2-0.5-0.4-0.7
		c-0.2-0.2-0.4-0.2-0.6-0.3s-0.5-0.1-0.8-0.1h-0.9c-0.3,0-0.6,0-0.8,0.1s-0.4,0.1-0.6,0.3c-0.2,0.2-0.3,0.4-0.4,0.7
		c-0.1,0.3-0.1,0.7-0.1,1.2v5.2c0,0.5,0.1,0.9,0.2,1.3c0.1,0.3,0.3,0.5,0.4,0.7c0.2,0.2,0.4,0.3,0.6,0.3c0.2,0,0.5,0.1,0.7,0.1h0.9
		c0.3,0,0.6,0,0.8-0.1c0.2,0,0.5-0.1,0.6-0.3c0.2-0.1,0.3-0.4,0.4-0.6c0.1-0.3,0.1-0.7,0.1-1.2V194.9z"/>
	<path fill="#040000" d="M135.5,192.6v11.3h-1.3v-11.3h-1.6v-1.3h1.6V190c0-1.1,0.2-1.9,0.6-2.5c0.4-0.5,1-0.8,1.8-0.8h1.7v1.4h-1.5
		c-0.2,0-0.4,0-0.6,0.1c-0.2,0-0.3,0.1-0.4,0.2c-0.1,0.1-0.2,0.3-0.3,0.5c-0.1,0.2-0.1,0.6-0.1,1v1.3h2.8v1.3H135.5z"/>
	<path fill="#040000" d="M152.9,203.9h-1.3v-17.2h1.3V203.9z"/>
	<path fill="#040000" d="M160.8,191.2c0.4,0,0.8,0,1.2,0.1c0.4,0.1,0.8,0.3,1.1,0.5c0.3,0.2,0.6,0.6,0.7,1c0.2,0.4,0.3,1,0.3,1.6
		v9.4H163l-0.1-1.7c-0.4,0.6-0.9,1.1-1.4,1.3s-1.1,0.4-1.7,0.4c-0.5,0-0.9-0.1-1.2-0.2c-0.4-0.1-0.7-0.3-1-0.6
		c-0.3-0.3-0.5-0.7-0.6-1.1c-0.2-0.5-0.2-1-0.2-1.7c0-0.6,0.1-1.1,0.2-1.6c0.1-0.4,0.3-0.8,0.5-1.1c0.2-0.3,0.4-0.6,0.7-0.8
		c0.3-0.2,0.6-0.3,0.9-0.5c0.3-0.1,0.6-0.2,1-0.2c0.3,0,0.7-0.1,1-0.1s0.7,0,1,0c0.3,0,0.7,0,1,0v-1.5c0-0.4-0.1-0.8-0.2-1
		s-0.3-0.5-0.5-0.6c-0.2-0.1-0.4-0.2-0.7-0.3c-0.3-0.1-0.5-0.1-0.8-0.1h-3.2v-1.4H160.8z M160.7,197.3c-0.4,0-0.7,0-1.1,0.1
		c-0.3,0.1-0.6,0.2-0.9,0.4s-0.4,0.5-0.6,0.9c-0.1,0.4-0.2,0.9-0.2,1.5c0,0.5,0.1,0.8,0.2,1.1c0.1,0.3,0.2,0.5,0.4,0.7
		c0.2,0.2,0.4,0.3,0.6,0.4c0.2,0.1,0.5,0.1,0.8,0.1c0.5,0,1.1-0.1,1.6-0.4c0.5-0.3,0.9-0.7,1.3-1.2v-3.6H160.7z"/>
	<path fill="#040000" d="M172.2,203.9h-0.8c-2.2,0-3.3-1.2-3.3-3.6v-9.1h1.3v8.9c0,0.5,0.1,0.9,0.2,1.3c0.1,0.3,0.3,0.5,0.4,0.7
		c0.2,0.2,0.4,0.3,0.6,0.3c0.2,0,0.5,0.1,0.7,0.1h0.9c0.3,0,0.6,0,0.8-0.1c0.2,0,0.5-0.1,0.6-0.3c0.2-0.1,0.3-0.4,0.4-0.6
		c0.1-0.3,0.1-0.7,0.1-1.2v-9.1h1.3v9.1C175.5,202.7,174.4,203.9,172.2,203.9z"/>
	<path fill="#040000" d="M186.8,204.6c0,1.1-0.2,1.9-0.6,2.5c-0.4,0.6-1,0.9-1.8,0.9h-4.6l-0.1-1.4h4.7c0.2,0,0.4-0.1,0.6-0.2
		c0.2-0.1,0.3-0.2,0.4-0.4c0.1-0.2,0.1-0.4,0.2-0.6c0-0.2,0-0.5,0-0.8v-1.8c-0.2,0.4-0.5,0.7-0.8,0.9s-0.7,0.3-1.1,0.3h-1.5
		c-0.4,0-0.8-0.1-1.2-0.2s-0.7-0.3-0.9-0.6c-0.3-0.3-0.5-0.6-0.6-1c-0.2-0.4-0.2-0.9-0.2-1.6v-5.9c0-0.9,0.1-1.7,0.4-2.1
		c0.3-0.5,0.7-0.8,1.1-1c0.2-0.1,0.5-0.2,0.7-0.2c0.3,0,0.5-0.1,0.8-0.1c0.3,0,0.5,0,0.8,0c0.3,0,0.5,0,0.8,0c0.4,0,0.8,0.1,1.2,0.2
		c0.4,0.1,0.7,0.3,0.9,0.6c0.3,0.3,0.5,0.6,0.6,1.1c0.2,0.4,0.2,0.9,0.2,1.5V204.6z M185.5,194.8c0-0.8-0.1-1.4-0.4-1.7
		c-0.3-0.3-0.7-0.5-1.3-0.5h-1.4c-0.3,0-0.6,0-0.8,0.1c-0.2,0.1-0.4,0.2-0.6,0.3c-0.2,0.2-0.3,0.4-0.4,0.7c-0.1,0.3-0.1,0.7-0.1,1.2
		v5.5c0,0.8,0.1,1.4,0.4,1.7c0.3,0.3,0.7,0.5,1.3,0.5h1.1c0.3,0,0.6,0,0.9-0.1s0.5-0.2,0.7-0.4s0.4-0.4,0.5-0.8
		c0.1-0.3,0.2-0.7,0.2-1.2V194.8z"/>
	<path fill="#040000" d="M197.2,194.9c0-0.7-0.1-1.3-0.4-1.7c-0.3-0.4-0.7-0.6-1.2-0.6c-0.3,0-0.6,0.1-0.9,0.2s-0.6,0.3-0.9,0.5
		c-0.3,0.2-0.6,0.5-0.8,0.8c-0.2,0.3-0.4,0.6-0.6,0.8v9h-1.3v-17.2h1.3v6.5c0.5-0.6,1-1.1,1.6-1.5s1.3-0.6,2-0.6
		c0.8,0,1.4,0.3,1.9,1c0.5,0.7,0.7,1.6,0.7,2.7v9.1h-1.3V194.9z"/>
	<path fill="#040000" d="M202.8,200.1l-0.2-12.5h1.3l-0.2,12.5H202.8z M204,203.9h-1.2v-1.8h1.2V203.9z"/>
</g>
<g>
	<g>
		<path fill="#040000" d="M86,169.6h-9.1V48H86V169.6z"/>
		<path fill="#040000" d="M143.7,79.8c7.7,0,13.5,2.1,17.5,6.4c4,4.3,5.9,10.7,5.9,19.2v38.8c0,17-7.8,25.4-23.4,25.4h-5.9
			c-15.5,0-23.2-8.5-23.2-25.4v-38.8c0-17.1,7.7-25.6,23.2-25.6H143.7z M157.9,105.7c0-3.6-0.3-6.3-1-8.4c-0.7-2-1.6-3.6-2.9-4.6
			c-1.2-1.1-2.7-1.8-4.5-2.1c-1.8-0.3-3.7-0.5-5.7-0.5h-6.3c-2.1,0-3.9,0.2-5.7,0.5c-1.7,0.3-3.2,1-4.4,2.1
			c-1.2,1.1-2.2,2.6-2.9,4.6c-0.7,2-1,4.8-1,8.4v37c0,3.8,0.4,6.7,1.1,8.9c0.8,2.2,1.8,3.9,3.1,5c1.3,1.2,2.8,1.9,4.5,2.2
			c1.7,0.3,3.4,0.5,5.3,0.5h6.1c2.1,0,4-0.2,5.7-0.5c1.8-0.3,3.3-1,4.5-2c1.3-1,2.2-2.5,2.9-4.6c0.7-2,1-4.8,1-8.4V105.7z"/>
		<path fill="#040000" d="M204.8,169.6h-9.1V48h9.1V169.6z"/>
	</g>
</g>
</svg>
