<?xml version="1.0" encoding="utf-8"?>
<!-- Generator: Adobe Illustrator 18.1.1, SVG Export Plug-In . SVG Version: 6.00 Build 0)  -->
<!DOCTYPE svg PUBLIC "-//W3C//DTD SVG 1.1//EN" "http://www.w3.org/Graphics/SVG/1.1/DTD/svg11.dtd">
<svg version="1.1" id="レイヤー_1" xmlns="http://www.w3.org/2000/svg" xmlns:xlink="http://www.w3.org/1999/xlink" x="0px"
	 y="0px" viewBox="0 0 249.8 38" enable-background="new 0 0 249.8 38" xml:space="preserve">
<rect x="-18.9" y="-211.6" fill="#FFFFFF" width="283.5" height="283.5"/>
<g>
	<path fill="#040000" d="M3.1,5.2h8.6V1.7h1.8v3.5h8.7v2H3.1V5.2z M21.3,29.1c0,0.9-0.2,1.5-0.6,1.9c-0.4,0.4-0.9,0.6-1.6,0.6
		c-0.4,0-0.9,0-1.4,0c-0.5,0-0.9-0.1-1.4-0.1L16.2,29c1,0.2,1.9,0.4,2.7,0.4c0.5,0,0.7-0.4,0.7-1.1v-8.9h-14V32H3.9V17.5h17.5V29.1z
		 M18.6,9.2v6.3H6.7V9.2H18.6z M8,29.6v-8.3h9.2v6.4H9.6v1.9H8z M8.4,11v2.6h8.5V11H8.4z M15.5,23H9.6v2.9h5.9V23z"/>
	<path fill="#040000" d="M39.4,5V1.7h1.7V5h9.3v2h-9.3v2.2h7.1v10.5h-2.6v2.2h5.2v2.1h-5.1v5.6c0,1.6-0.6,2.4-1.9,2.4
		c-0.5,0-1.1,0-1.6-0.1c-0.5,0-1-0.1-1.5-0.2l-0.3-2.4c0.9,0.3,1.9,0.4,2.8,0.4c0.5,0,0.7-0.4,0.7-1.1v-4.7h-14v-2.1h14v-2.2H32.4
		V9.2h7V7h-9.2V5H39.4z M37.5,30.4c-0.5-0.9-1.1-1.7-1.6-2.5c-0.6-0.8-1.2-1.6-1.9-2.2l1.3-1.6c0.7,0.7,1.3,1.4,1.9,2.1
		c0.6,0.8,1.2,1.6,1.7,2.4L37.5,30.4L37.5,30.4z M39.4,11h-5.3v2.4h5.3V11z M39.4,15.3h-5.3v2.6h5.3V15.3z M41.1,11v2.4h5.5V11H41.1
		z M41.1,15.3v2.6h5.5v-2.6H41.1z"/>
	<path fill="#040000" d="M75.5,23.7c-0.1,0.8-0.2,1.6-0.3,2.3c-0.2,1-0.5,1.7-0.9,2.3c-0.4,0.5-0.8,1-1.3,1.2
		c-0.5,0.3-1.1,0.4-1.7,0.5c-0.6,0.1-1.2,0.1-1.9,0.1v-2.5c0.8,0,1.4-0.1,1.9-0.2c0.5-0.1,0.8-0.3,1.1-0.5c0.3-0.2,0.5-0.5,0.6-0.8
		c0.1-0.3,0.2-0.7,0.3-1.1c0.1-0.4,0.2-1,0.3-1.7c0.1-0.7,0.1-1.7,0.1-3v-7.8h-6v0.2c0,1.1,0,2.2-0.1,3.1s-0.2,1.8-0.3,2.6
		c-0.1,0.8-0.3,1.6-0.6,2.3c-0.2,0.8-0.5,1.6-0.9,2.5c-0.4,0.9-0.8,1.8-1.3,2.9c-0.5,1.1-1.1,2.3-1.7,3.7l-1.6-1.4
		c0.6-1.3,1.2-2.5,1.7-3.5c0.5-1,0.9-1.9,1.2-2.7c0.3-0.8,0.6-1.6,0.8-2.2c0.2-0.7,0.4-1.4,0.5-2.1s0.2-1.5,0.3-2.3
		c0-0.8,0.1-1.7,0.1-2.8v-0.2h-5.6v-2.4h5.6V3.1h2v7.2h7.9v10.2C75.6,21.8,75.6,22.9,75.5,23.7z"/>
	<path fill="#040000" d="M95.6,7v2.6h-7V7H95.6z M104.8,13.8c-0.7,1.8-1.4,3.4-2,4.9c-0.6,1.5-1.2,2.8-1.9,4s-1.3,2.2-2,3.1
		c-0.7,0.9-1.5,1.6-2.4,2.2c-0.9,0.6-2,1-3.1,1.3c-1.2,0.3-2.5,0.4-4.1,0.4v-2.5c1.3,0,2.4-0.1,3.4-0.3c1-0.2,1.9-0.6,2.6-1
		c0.8-0.5,1.5-1.1,2.1-1.9s1.2-1.7,1.8-2.8c0.6-1.1,1.2-2.3,1.8-3.8c0.6-1.4,1.3-3,2-4.9L104.8,13.8z"/>
	<path fill="#040000" d="M130.5,14.6c-0.4,1.9-1.1,3.7-2,5.3c-0.9,1.7-2,3.3-3.3,5c-1.3,1.6-2.8,3.4-4.6,5.4l-1.3-2
		c1.7-2,3.2-3.7,4.4-5.3c1.2-1.5,2.2-3.1,3-4.5c0.8-1.5,1.4-3,1.7-4.5c0.4-1.6,0.6-3.3,0.6-5.3h-12.8V6.1h14.9v2
		C131.2,10.5,131,12.7,130.5,14.6z"/>
	<path fill="#040000" d="M152.5,18.2c0.9-0.7,1.6-1.2,2.1-1.7c0.5-0.4,1-0.8,1.3-1.2c0.3-0.4,0.5-0.7,0.6-1.1
		c0.1-0.4,0.2-0.8,0.2-1.3v-0.1h-12.3v-2.3h14.1v2.4c0,0.9-0.1,1.6-0.3,2.3c-0.2,0.6-0.5,1.2-0.9,1.7s-0.9,1.1-1.6,1.6
		c-0.6,0.5-1.4,1.1-2.2,1.8L152.5,18.2z M146.3,29.6c0.5-0.8,1-1.5,1.3-2.1c0.4-0.6,0.7-1.2,1-1.8s0.5-1.2,0.6-1.8
		c0.2-0.6,0.3-1.3,0.4-2.1c0.1-0.8,0.2-1.7,0.2-2.8c0-1.1,0-2.3,0-3.9h1.8c0,1.7,0,3.1-0.1,4.3c-0.1,1.2-0.1,2.3-0.2,3.2
		c-0.1,0.9-0.3,1.7-0.5,2.4s-0.5,1.4-0.7,2c-0.3,0.6-0.6,1.3-1,1.9c-0.4,0.7-0.9,1.4-1.4,2.2L146.3,29.6z"/>
	<path fill="#040000" d="M185.1,22.3c-0.9,1.6-1.8,2.9-2.7,4s-2,1.9-3.1,2.5c-1.1,0.6-2.4,0.9-3.9,0.9h-2V4.2h2.1v22.8
		c1.2,0,2.2-0.2,3.1-0.7c0.9-0.5,1.7-1.2,2.5-2.1c0.8-0.9,1.6-2.1,2.4-3.5c0.8-1.4,1.8-3.2,2.8-5.1l1.7,1.3
		C186.9,18.9,186,20.7,185.1,22.3z"/>
	<path fill="#040000" d="M206.6,7v2.6h-7V7H206.6z M215.8,13.8c-0.7,1.8-1.4,3.4-2,4.9c-0.6,1.5-1.2,2.8-1.9,4s-1.3,2.2-2,3.1
		c-0.7,0.9-1.5,1.6-2.4,2.2c-0.9,0.6-2,1-3.1,1.3c-1.2,0.3-2.5,0.4-4.1,0.4v-2.5c1.3,0,2.4-0.1,3.4-0.3c1-0.2,1.9-0.6,2.6-1
		c0.8-0.5,1.5-1.1,2.1-1.9s1.2-1.7,1.8-2.8c0.6-1.1,1.2-2.3,1.8-3.8c0.6-1.4,1.3-3,2-4.9L215.8,13.8z"/>
	<path fill="#040000" d="M231.2,23.2c1.2-1.3,2.3-2.6,3.2-3.7c0.9-1.1,1.6-2.1,2.1-3.1c0.5-0.9,1-1.8,1.3-2.7
		c0.3-0.9,0.5-1.7,0.6-2.5c0.1-0.8,0.2-1.7,0.2-2.7h-9.7V6.1h11.7v2.6c0,1-0.1,2-0.2,2.9c-0.1,0.9-0.3,1.8-0.6,2.6
		c-0.3,0.9-0.6,1.7-1.1,2.6c-0.4,0.9-0.9,1.7-1.6,2.6c1.9,2.4,3.3,4.4,4.3,5.9c1,1.5,1.6,2.6,2,3.2l-1.6,1.6c-0.3-0.5-1-1.6-1.9-3.1
		s-2.3-3.4-4.2-5.8c-0.4,0.6-0.9,1.2-1.4,1.8c-0.5,0.6-1.1,1.3-1.7,2c-0.6,0.7-1.3,1.4-2.1,2.2c-0.8,0.8-1.6,1.7-2.5,2.6l-1.2-2.1
		C228.5,26.1,229.9,24.5,231.2,23.2z"/>
</g>
</svg>
